<?xml version="1.0" encoding="UTF-8" standalone="no"?>
<!DOCTYPE svg PUBLIC "-//W3C//DTD SVG 1.1//EN"
 "http://www.w3.org/Graphics/SVG/1.1/DTD/svg11.dtd">
<!-- Generated by graphviz version 2.43.0 (0)
 -->
<!-- Title: %3 Pages: 1 -->
<svg width="333pt" height="238pt"
 viewBox="0.00 0.00 332.50 237.74" xmlns="http://www.w3.org/2000/svg" xmlns:xlink="http://www.w3.org/1999/xlink">
<g id="graph0" class="graph" transform="scale(1 1) rotate(0) translate(36 201.74)">
<title>%3</title>
<polygon fill="dimgray" stroke="transparent" points="-36,36 -36,-201.74 296.5,-201.74 296.5,36 -36,36"/>
<text text-anchor="middle" x="130.25" y="-150.54" font-family="Helvetica,sans-Serif" font-size="14.00">Sweep&#39;s Plan &amp; Progress</text>
<!-- start -->
<g id="node1" class="node">
<title>start</title>
</g>
<!-- d9c92d4d&#45;5adf&#45;4c8b&#45;a8d1&#45;eb3eae59763e -->
<g id="node3" class="node">
<title>d9c92d4d&#45;5adf&#45;4c8b&#45;a8d1&#45;eb3eae59763e</title>
<ellipse fill="yellow" stroke="black" cx="128" cy="-99.87" rx="73.58" ry="26.74"/>
<text text-anchor="middle" x="128" y="-103.67" font-family="Helvetica,sans-Serif" font-size="14.00">⋯ Create</text>
<text text-anchor="middle" x="128" y="-88.67" font-family="Helvetica,sans-Serif" font-size="14.00">README.md</text>
</g>
<!-- start&#45;&gt;d9c92d4d&#45;5adf&#45;4c8b&#45;a8d1&#45;eb3eae59763e -->
<g id="edge2" class="edge">
<title>start&#45;&gt;d9c92d4d&#45;5adf&#45;4c8b&#45;a8d1&#45;eb3eae59763e</title>
<path fill="none" stroke="black" d="M2.8,-99.87C6.64,-99.87 23.74,-99.87 44.12,-99.87"/>
<polygon fill="black" stroke="black" points="44.35,-103.37 54.35,-99.87 44.35,-96.37 44.35,-103.37"/>
<text text-anchor="middle" x="28.48" y="-106.67" font-family="Helvetica,sans-Serif" font-size="14.00">Start</text>
</g>
<!-- end -->
<g id="node2" class="node">
<title>end</title>
</g>
<!-- d9c92d4d&#45;5adf&#45;4c8b&#45;a8d1&#45;eb3eae59763e&#45;&gt;end -->
<g id="edge3" class="edge">
<title>d9c92d4d&#45;5adf&#45;4c8b&#45;a8d1&#45;eb3eae59763e&#45;&gt;end</title>
<path fill="none" stroke="black" d="M201.72,-99.87C220.34,-99.87 238.14,-99.87 249.06,-99.87"/>
<polygon fill="black" stroke="black" points="249.28,-103.37 259.28,-99.87 249.28,-96.37 249.28,-103.37"/>
<text text-anchor="middle" x="230.52" y="-106.67" font-family="Helvetica,sans-Serif" font-size="14.00">Finish</text>
</g>
<!-- 31540742&#45;7c5a&#45;40a8&#45;bdc2&#45;b491142cf02d -->
<g id="node4" class="node">
<title>31540742&#45;7c5a&#45;40a8&#45;bdc2&#45;b491142cf02d</title>
<polygon fill="white" stroke="black" points="256,-36 0,-36 0,0 256,0 256,-36"/>
<text text-anchor="middle" x="128" y="-14.3" font-family="Helvetica,sans-Serif" font-size="14.00">▶ Ran sandbox for `README.md`.</text>
</g>
<!-- d9c92d4d&#45;5adf&#45;4c8b&#45;a8d1&#45;eb3eae59763e&#45;&gt;31540742&#45;7c5a&#45;40a8&#45;bdc2&#45;b491142cf02d -->
<g id="edge1" class="edge">
<title>d9c92d4d&#45;5adf&#45;4c8b&#45;a8d1&#45;eb3eae59763e&#45;&gt;31540742&#45;7c5a&#45;40a8&#45;bdc2&#45;b491142cf02d</title>
<path fill="none" stroke="black" stroke-dasharray="5,2" d="M128,-72.72C128,-64.27 128,-54.89 128,-46.36"/>
<polygon fill="black" stroke="black" points="131.5,-46.15 128,-36.15 124.5,-46.15 131.5,-46.15"/>
</g>
</g>
</svg>
