<?xml version="1.0" encoding="UTF-8" standalone="no"?>
<!DOCTYPE svg PUBLIC "-//W3C//DTD SVG 1.1//EN"
 "http://www.w3.org/Graphics/SVG/1.1/DTD/svg11.dtd">
<!-- Generated by graphviz version 2.43.0 (0)
 -->
<!-- Title: %3 Pages: 1 -->
<svg width="333pt" height="238pt"
 viewBox="0.00 0.00 333.00 237.74" xmlns="http://www.w3.org/2000/svg" xmlns:xlink="http://www.w3.org/1999/xlink">
<g id="graph0" class="graph" transform="scale(1 1) rotate(0) translate(36 201.74)">
<title>%3</title>
<polygon fill="dimgray" stroke="transparent" points="-36,36 -36,-201.74 297,-201.74 297,36 -36,36"/>
<text text-anchor="middle" x="130.5" y="-150.54" font-family="Helvetica,sans-Serif" font-size="14.00">Sweep&#39;s Plan &amp; Progress</text>
<!-- start -->
<g id="node1" class="node">
<title>start</title>
</g>
<!-- d9c92d4d&#45;5adf&#45;4c8b&#45;a8d1&#45;eb3eae59763e -->
<g id="node3" class="node">
<title>d9c92d4d&#45;5adf&#45;4c8b&#45;a8d1&#45;eb3eae59763e</title>
<ellipse fill="#0ee832" stroke="black" cx="128.5" cy="-99.87" rx="73.58" ry="26.74"/>
<text text-anchor="middle" x="128.5" y="-103.67" font-family="Helvetica,sans-Serif" font-size="14.00">✓ Create</text>
<text text-anchor="middle" x="128.5" y="-88.67" font-family="Helvetica,sans-Serif" font-size="14.00">README.md</text>
</g>
<!-- start&#45;&gt;d9c92d4d&#45;5adf&#45;4c8b&#45;a8d1&#45;eb3eae59763e -->
<g id="edge2" class="edge">
<title>start&#45;&gt;d9c92d4d&#45;5adf&#45;4c8b&#45;a8d1&#45;eb3eae59763e</title>
<path fill="none" stroke="black" d="M3.3,-99.87C7.14,-99.87 24.24,-99.87 44.62,-99.87"/>
<polygon fill="black" stroke="black" points="44.85,-103.37 54.85,-99.87 44.85,-96.37 44.85,-103.37"/>
<text text-anchor="middle" x="28.98" y="-106.67" font-family="Helvetica,sans-Serif" font-size="14.00">Start</text>
</g>
<!-- end -->
<g id="node2" class="node">
<title>end</title>
</g>
<!-- d9c92d4d&#45;5adf&#45;4c8b&#45;a8d1&#45;eb3eae59763e&#45;&gt;end -->
<g id="edge3" class="edge">
<title>d9c92d4d&#45;5adf&#45;4c8b&#45;a8d1&#45;eb3eae59763e&#45;&gt;end</title>
<path fill="none" stroke="black" d="M202.22,-99.87C220.84,-99.87 238.64,-99.87 249.56,-99.87"/>
<polygon fill="black" stroke="black" points="249.78,-103.37 259.78,-99.87 249.78,-96.37 249.78,-103.37"/>
<text text-anchor="middle" x="231.02" y="-106.67" font-family="Helvetica,sans-Serif" font-size="14.00">Finish</text>
</g>
<!-- 31540742&#45;7c5a&#45;40a8&#45;bdc2&#45;b491142cf02d -->
<g id="node4" class="node">
<title>31540742&#45;7c5a&#45;40a8&#45;bdc2&#45;b491142cf02d</title>
<polygon fill="#0ee832" stroke="black" points="257,-36 0,-36 0,0 257,0 257,-36"/>
<text text-anchor="middle" x="128.5" y="-14.3" font-family="Helvetica,sans-Serif" font-size="14.00">✓ Ran sandbox for `README.md`.</text>
</g>
<!-- d9c92d4d&#45;5adf&#45;4c8b&#45;a8d1&#45;eb3eae59763e&#45;&gt;31540742&#45;7c5a&#45;40a8&#45;bdc2&#45;b491142cf02d -->
<g id="edge1" class="edge">
<title>d9c92d4d&#45;5adf&#45;4c8b&#45;a8d1&#45;eb3eae59763e&#45;&gt;31540742&#45;7c5a&#45;40a8&#45;bdc2&#45;b491142cf02d</title>
<path fill="none" stroke="black" stroke-dasharray="5,2" d="M128.5,-72.72C128.5,-64.27 128.5,-54.89 128.5,-46.36"/>
<polygon fill="black" stroke="black" points="132,-46.15 128.5,-36.15 125,-46.15 132,-46.15"/>
</g>
</g>
</svg>
